<?xml version="1.0" encoding="UTF-8" standalone="no"?>
<!-- Designer: Jonas Schnelli
  	 License: MIT
-->

<svg
   version="1.1"
   id="svg2"
   sodipodi:docname="bitcoin.svg"
   inkscape:version="1.3.2 (091e20e, 2023-11-25)"
   x="0px"
   y="0px"
   width="1024"
   height="1024"
   viewBox="-34 -34 580 580"
   enable-background="new 0 0 1024 1024"
   xml:space="preserve"
   xmlns:inkscape="http://www.inkscape.org/namespaces/inkscape"
   xmlns:sodipodi="http://sodipodi.sourceforge.net/DTD/sodipodi-0.dtd"
   xmlns="http://www.w3.org/2000/svg"
   xmlns:svg="http://www.w3.org/2000/svg"><defs
   id="defs7" /><sodipodi:namedview
   id="namedview7"
   pagecolor="#ffffff"
   bordercolor="#000000"
   borderopacity="0.25"
   inkscape:showpageshadow="2"
   inkscape:pageopacity="0.0"
   inkscape:pagecheckerboard="0"
   inkscape:deskcolor="#d1d1d1"
   inkscape:zoom="0.84472656"
   inkscape:cx="511.40809"
   inkscape:cy="512"
   inkscape:window-width="1568"
   inkscape:window-height="1212"
   inkscape:window-x="1745"
   inkscape:window-y="151"
   inkscape:window-maximized="0"
   inkscape:current-layer="svg2"
   inkscape:export-bgcolor="#ffffff00" />

	<!-- nice shadow with alpha 0.35 -->
	<filter
   id="dropShadowAlpha"
   x="-0.19578262"
   y="-0.22612388"
   width="1.3915652"
   height="1.4522479">
		<feColorMatrix
   result="matrixOut"
   in="SourceAlpha"
   type="saturate"
   values="0.1"
   id="feColorMatrix1" />
		<feGaussianBlur
   in="matrixOut"
   result="blur-out"
   stdDeviation="6"
   id="feGaussianBlur1" />
		<feColorMatrix
   in="blur-out"
   result="color-out"
   type="matrix"
   values="0 0 0 0   0                 0 0 0 0   0                  0 0 0 0   0                  0 0 0 0.35 0"
   id="feColorMatrix2" />
		<feBlend
   in="SourceGraphic"
   in2="color-out"
   mode="normal"
   id="feBlend2" />
	</filter>
	
	
<g
   id="g8"
   transform="matrix(1.6406376,0,0,1.6406376,-376.45335,46.201942)"
   style="fill:#000000;fill-opacity:1"><g
     id="g2"
     transform="matrix(2.4955775,0,0,2.4955775,-600.45648,-635.60269)"
     style="fill:#000000;fill-opacity:1">
	<path
   d="m 395.26,368.91 c -34.69,0 -62.91,-28.22 -62.91,-62.91 0,-34.69 28.22,-62.91 62.91,-62.91 34.69,0 62.91,28.22 62.91,62.91 0,34.69 -28.22,62.91 -62.91,62.91 z m 0,-120.82 c -31.93,0 -57.91,25.98 -57.91,57.91 0,31.93 25.98,57.91 57.91,57.91 31.93,0 57.91,-25.98 57.91,-57.91 0,-31.93 -25.98,-57.91 -57.91,-57.91 z"
   id="path1"
   style="fill:#000000;fill-opacity:1" />
</g><g
     id="g5"
     transform="matrix(2.4955775,0,0,2.4955775,-600.45648,-635.60269)"
     style="fill:#000000;fill-opacity:1">
	<g
   id="g3"
   style="fill:#000000;fill-opacity:1">
		<path
   d="m 418.17,315.18 -9.58,-9.19 9.54,-9.16 0.03,-0.03 c 3.64,-3.64 3.64,-9.56 0,-13.2 -1.76,-1.76 -4.11,-2.73 -6.6,-2.73 -2.45,0 -4.77,0.94 -6.52,2.66 l -7.38,6.93 7.03,6.6 c 0.91,0.91 1.67,1.94 2.27,3.08 2.58,4.91 1.68,10.86 -2.25,14.79 l -0.17,0.16 -6.87,6.45 7.38,6.93 c 1.75,1.71 4.07,2.66 6.52,2.66 2.49,0 4.84,-0.97 6.6,-2.73 3.64,-3.66 3.64,-9.58 0,-13.22 z"
   id="path2"
   style="fill:#000000;fill-opacity:1" />
	</g>
	<g
   id="g4"
   style="fill:#000000;fill-opacity:1">
		<path
   d="m 378.94,331.11 c -2.5,0 -4.84,-0.97 -6.6,-2.73 -3.64,-3.64 -3.64,-9.56 0,-13.2 l 0.03,-0.03 9.54,-9.16 -9.58,-9.19 c -3.64,-3.64 -3.64,-9.56 0,-13.2 1.76,-1.76 4.11,-2.73 6.6,-2.73 2.45,0 4.77,0.94 6.52,2.66 l 16.91,15.87 c 0.67,0.67 1.23,1.43 1.68,2.28 1.91,3.63 1.24,8.03 -1.67,10.93 l -0.13,0.13 -16.78,15.74 c -1.75,1.69 -4.06,2.63 -6.52,2.63 z"
   id="path3-9"
   style="fill:#000000;fill-opacity:1" />
	</g>
</g></g></svg>
